<svg width="42" height="39" viewBox="0 0 42 39" fill="none" xmlns="http://www.w3.org/2000/svg">
<path d="M40.2886 16.6838C38.961 15.8932 37.0809 15.6401 35.4981 16.0389C35.074 16.1459 34.6801 16.2959 34.3273 16.485C33.4274 16.9672 31.4295 18.4147 29.8463 19.8474V8.80433C29.8463 7.86569 29.3166 6.94828 28.3931 6.28705C27.4763 5.63069 26.272 5.27669 25.0082 5.2939C24.4344 5.30136 23.8846 5.38427 23.3766 5.52914V4.45051C23.3766 3.42897 22.8 2.43037 21.7942 1.71033C20.7974 0.996599 19.493 0.611907 18.1135 0.630267C15.363 0.664978 13.1174 2.29354 13.0351 4.28441C12.4392 4.08762 11.7922 3.97717 11.1223 3.96254C9.72496 3.93271 8.34106 4.32658 7.32656 5.04404C6.33294 5.74658 5.78552 6.67403 5.78552 7.65283L5.78197 8.69876C5.3531 8.59606 4.89586 8.53983 4.42052 8.53983C2.02172 8.53983 0.0703125 9.96127 0.0703125 11.7083L0.0718878 27.7609L0.0754322 27.837C0.27589 29.9437 0.881201 31.7476 1.87522 33.1986C2.80701 34.5589 4.10703 35.6542 5.73905 36.454C8.9507 38.0283 12.9181 38.2302 16.0155 38.2302C22.0982 38.2302 27.5704 36.0274 30.3071 32.4794C30.6399 32.0887 31.5169 31.084 32.4641 30.0005C33.3864 28.9449 34.2446 27.9721 35.0011 27.1138C35.417 26.6419 35.7955 26.2127 36.1239 25.8386C37.3475 24.4447 38.6515 23.0933 40 21.8216C40.5001 21.35 40.6541 21.222 40.6891 21.1939C41.3205 20.6922 41.7182 20.078 41.8395 19.4173C42.0305 18.3809 41.465 17.3843 40.2886 16.6838ZM38.8386 19.1247C38.7996 19.3359 38.6676 19.5361 38.4569 19.7036C38.3471 19.7911 38.1505 19.9575 37.6039 20.4733C36.2007 21.7964 34.8444 23.2017 33.5727 24.6504C33.245 25.0236 32.8682 25.4511 32.4531 25.9218C31.6949 26.7819 30.8356 27.7569 29.9097 28.8161C28.9405 29.9251 28.0434 30.9524 27.7149 31.3388L27.6807 31.3812C25.4843 34.2453 21.0148 36.0245 16.0159 36.0245C13.3486 36.0245 9.96165 35.8653 7.42974 34.6243C4.84624 33.3581 3.43004 31.1004 3.10002 27.7222L3.09844 11.7086C3.09844 11.1776 3.69154 10.7456 4.42052 10.7456C5.15382 10.7456 5.75047 11.1776 5.75047 11.7086V17.7159C5.75047 17.7337 5.75322 17.7509 5.75401 17.7687C5.75559 17.7882 5.75559 17.808 5.75834 17.8275C5.76071 17.845 5.76543 17.8619 5.76898 17.8792C5.77292 17.8984 5.77567 17.9179 5.78079 17.9371C5.78591 17.9543 5.793 17.9712 5.79891 17.9882C5.80521 18.0062 5.81033 18.0249 5.81821 18.0427C5.82529 18.0599 5.83475 18.0765 5.84341 18.0932C5.85168 18.1101 5.85916 18.1273 5.86901 18.1439C5.87846 18.1606 5.88988 18.1764 5.90052 18.1924C5.91115 18.2085 5.92099 18.2248 5.93241 18.2406C5.94384 18.2561 5.95762 18.271 5.97022 18.2862C5.98282 18.3014 5.99464 18.3169 6.00803 18.3315C6.02181 18.3462 6.03717 18.3599 6.05174 18.374C6.06632 18.3883 6.07971 18.403 6.09507 18.4165C6.11042 18.4299 6.12736 18.4423 6.14311 18.4552C6.15965 18.4684 6.17541 18.4824 6.19273 18.4951C6.20967 18.5071 6.22739 18.518 6.24511 18.5298C6.26323 18.5418 6.28095 18.5547 6.30025 18.5662C6.31836 18.5771 6.33766 18.5869 6.35657 18.5972C6.37665 18.6081 6.39595 18.6196 6.41643 18.6299C6.43572 18.6394 6.4562 18.6474 6.4759 18.656C6.49756 18.6658 6.51882 18.6761 6.54127 18.6853C6.56175 18.6933 6.58341 18.6999 6.60428 18.7073C6.62712 18.7157 6.64997 18.7243 6.6736 18.7317C6.69526 18.7386 6.71849 18.7438 6.74055 18.7498C6.76457 18.7561 6.7882 18.7633 6.81262 18.769C6.83585 18.7742 6.86027 18.7779 6.8839 18.7825C6.90871 18.7871 6.93273 18.7925 6.95754 18.7963C6.98275 18.8 7.00795 18.802 7.03316 18.8049C7.05836 18.8075 7.08278 18.8112 7.10799 18.8132C7.13319 18.8149 7.15918 18.8152 7.18478 18.8161C7.20999 18.8169 7.23519 18.8189 7.26079 18.8189C7.26197 18.8189 7.26355 18.8189 7.26473 18.8189C7.31711 18.8189 7.3687 18.8169 7.4195 18.8132C7.44156 18.8118 7.46322 18.8083 7.48527 18.806C7.51323 18.8032 7.54198 18.8009 7.56955 18.7966C7.59869 18.7923 7.62666 18.7862 7.65501 18.7808C7.6747 18.7768 7.69518 18.7739 7.71448 18.7696C7.74598 18.7624 7.7767 18.7535 7.80742 18.7449C7.82239 18.7406 7.83853 18.7372 7.8535 18.7326C7.88422 18.7231 7.91336 18.7119 7.9429 18.7013C7.95708 18.6962 7.97165 18.6919 7.98582 18.6864C8.01339 18.6755 8.03938 18.6629 8.06577 18.6508C8.08074 18.6442 8.0961 18.6382 8.11027 18.631C8.13469 18.6193 8.15793 18.6058 8.18116 18.5926C8.19652 18.5843 8.21227 18.5765 8.22685 18.5676C8.24851 18.555 8.2682 18.5407 8.28868 18.5269C8.30404 18.5169 8.31979 18.5071 8.33475 18.4968C8.35366 18.483 8.37059 18.4681 8.38831 18.4538C8.40289 18.442 8.41864 18.4305 8.43242 18.4185C8.44818 18.4044 8.46235 18.3895 8.47732 18.3749C8.4915 18.3611 8.50646 18.3479 8.51946 18.3336C8.53324 18.3189 8.54466 18.3037 8.55727 18.2885C8.56987 18.2733 8.58365 18.2584 8.59547 18.2429C8.60689 18.2274 8.61634 18.2113 8.62697 18.1956C8.63761 18.1792 8.64942 18.1632 8.65927 18.1465C8.66872 18.1305 8.67581 18.1135 8.68408 18.0972C8.69314 18.08 8.70259 18.063 8.71046 18.0453C8.71755 18.0283 8.72267 18.0111 8.72858 17.9939C8.73488 17.9758 8.74236 17.958 8.74788 17.9397C8.7526 17.9225 8.75536 17.9044 8.75891 17.8866C8.76324 17.868 8.76796 17.8493 8.77072 17.8304C8.77348 17.8126 8.77348 17.7942 8.77466 17.7762C8.77623 17.7569 8.77899 17.7383 8.77899 17.7191L8.81404 7.6557C8.81404 7.27588 9.03498 6.91041 9.43589 6.6267C9.86674 6.32233 10.4496 6.15423 11.0329 6.16742C12.1253 6.19123 13.0142 6.88345 13.0142 7.71221L13.0315 17.6577C13.0315 17.6778 13.0343 17.6973 13.0359 17.7168C13.037 17.7343 13.037 17.7524 13.0394 17.7696C13.0422 17.7902 13.0477 17.81 13.052 17.8301C13.0555 17.8465 13.0579 17.8631 13.0622 17.8792C13.0685 17.901 13.0772 17.9222 13.0851 17.9434C13.0902 17.9572 13.0941 17.9712 13.0997 17.9847C13.1095 18.0077 13.1221 18.03 13.1339 18.0524C13.1398 18.0636 13.1442 18.0751 13.1505 18.086C13.1646 18.1098 13.1808 18.133 13.1969 18.156C13.2032 18.1646 13.208 18.1738 13.2143 18.1821C13.232 18.2059 13.2521 18.2286 13.2718 18.2509C13.2781 18.2584 13.2836 18.2659 13.2903 18.273C13.3111 18.2957 13.334 18.3169 13.3568 18.3381C13.3639 18.3447 13.3702 18.3516 13.3773 18.3579C13.4029 18.3806 13.4305 18.4018 13.4584 18.4228C13.4643 18.4274 13.4691 18.432 13.475 18.4363C13.5037 18.4572 13.5344 18.4767 13.5656 18.4959C13.5715 18.4997 13.5766 18.5037 13.5825 18.5074C13.6136 18.526 13.6459 18.543 13.6786 18.5596C13.6857 18.5633 13.692 18.5674 13.6991 18.5708C13.7321 18.5871 13.7668 18.6018 13.8015 18.6161C13.8089 18.6193 13.816 18.623 13.8239 18.6262C13.8601 18.6402 13.8975 18.6528 13.9354 18.6652C13.9424 18.6675 13.9491 18.6703 13.9562 18.6726C13.9948 18.6844 14.0346 18.6944 14.0748 18.7042C14.0819 18.7056 14.0882 18.7079 14.0952 18.7096C14.135 18.7185 14.1756 18.7257 14.2162 18.7323C14.2244 18.7335 14.2323 18.7355 14.2406 18.7369C14.339 18.7515 14.441 18.7593 14.5454 18.7593C14.5462 18.7593 14.547 18.7593 14.5478 18.7593C14.5741 18.7593 14.6001 18.7573 14.6261 18.7564C14.6513 18.7553 14.6765 18.7553 14.7013 18.7535C14.7289 18.7512 14.7553 18.7475 14.7825 18.7444C14.8053 18.7418 14.8289 18.7401 14.8518 18.7366C14.879 18.7326 14.9054 18.7269 14.9321 18.7217C14.9538 18.7174 14.9755 18.7142 14.9967 18.7094C15.0239 18.7033 15.0499 18.6956 15.0763 18.6881C15.096 18.6827 15.1164 18.6784 15.1357 18.6723C15.1629 18.6637 15.1893 18.6537 15.2157 18.6442C15.233 18.6379 15.2511 18.6325 15.2681 18.6259C15.2941 18.6155 15.3189 18.6035 15.3441 18.5923C15.3602 18.5849 15.3772 18.5783 15.3929 18.5705C15.4169 18.5587 15.4394 18.5456 15.4622 18.5326C15.478 18.524 15.4941 18.516 15.5095 18.5068C15.5311 18.4939 15.5516 18.4793 15.5725 18.4652C15.5871 18.4555 15.6024 18.446 15.617 18.4357C15.6363 18.4213 15.6544 18.4058 15.6729 18.3909C15.6867 18.3797 15.7013 18.3691 15.7147 18.3574C15.7312 18.3424 15.7462 18.3267 15.7615 18.3115C15.7749 18.2983 15.7891 18.2856 15.8017 18.2725C15.8159 18.2572 15.8277 18.2412 15.8407 18.2254C15.8529 18.2108 15.8663 18.1964 15.8773 18.1815C15.8891 18.1657 15.8986 18.1491 15.9092 18.133C15.9198 18.117 15.9317 18.1015 15.9411 18.0848C15.9502 18.0691 15.9577 18.0524 15.9655 18.0361C15.9746 18.0186 15.9844 18.0014 15.9919 17.9836C15.999 17.9664 16.0041 17.9489 16.0104 17.9314C16.0167 17.9136 16.0242 17.8961 16.0289 17.878C16.0341 17.8599 16.0368 17.8413 16.0408 17.8232C16.0443 17.8049 16.0494 17.7868 16.0518 17.7684C16.0545 17.7498 16.0545 17.7308 16.0557 17.7119C16.0573 17.6933 16.0597 17.6752 16.0597 17.6563V4.39772C16.0597 3.55088 17.0048 2.85035 18.1662 2.83572C18.7266 2.82998 19.2591 2.98776 19.6722 3.28352C20.1023 3.59133 20.3488 4.01676 20.3488 4.45051V17.7171C20.3488 17.7372 20.3516 17.7567 20.3531 17.7765C20.3543 17.794 20.3543 17.8117 20.3567 17.8292C20.3594 17.8487 20.365 17.8677 20.3689 17.8869C20.3728 17.9044 20.3752 17.9219 20.3799 17.9388C20.3854 17.958 20.3933 17.9767 20.4 17.9956C20.4059 18.012 20.4103 18.0283 20.4173 18.0444C20.426 18.0648 20.437 18.0846 20.4473 18.1043C20.4544 18.1181 20.4603 18.1322 20.4681 18.1457C20.4804 18.1663 20.4945 18.1861 20.5083 18.2062C20.5162 18.2179 20.5233 18.2303 20.5319 18.242C20.5469 18.2624 20.5642 18.2816 20.5812 18.3011C20.5902 18.3115 20.5981 18.3227 20.608 18.333C20.6261 18.3525 20.6462 18.3711 20.6662 18.3898C20.6761 18.399 20.6847 18.4087 20.695 18.4176C20.717 18.4374 20.7415 18.4558 20.7655 18.4744C20.7749 18.4813 20.7832 18.489 20.7927 18.4959C20.8175 18.5143 20.8442 18.5309 20.871 18.5478C20.8809 18.5542 20.8899 18.561 20.9002 18.5671C20.9301 18.5851 20.9616 18.6015 20.9931 18.6178C21.001 18.6219 21.0085 18.6264 21.0167 18.6308C21.0506 18.6474 21.0861 18.6626 21.1219 18.6772C21.1286 18.6798 21.1345 18.6833 21.1412 18.6858C21.1806 18.7013 21.2207 18.7151 21.2621 18.7283C21.266 18.7294 21.2696 18.7312 21.2735 18.7323C21.3164 18.7455 21.3606 18.757 21.4055 18.7673C21.4078 18.7682 21.4102 18.7687 21.4129 18.7693C21.5071 18.7908 21.6051 18.8055 21.7063 18.8132C21.7071 18.8132 21.7075 18.8132 21.7083 18.8132C21.7591 18.8169 21.8107 18.8189 21.8631 18.8189C21.8635 18.8189 21.8639 18.8189 21.8647 18.8189C21.8914 18.8189 21.9178 18.8169 21.9446 18.8161C21.9694 18.8149 21.9942 18.8149 22.0186 18.8132C22.0466 18.8112 22.0738 18.8072 22.1013 18.804C22.1238 18.8014 22.1466 18.7997 22.1691 18.7963C22.1986 18.792 22.227 18.7857 22.2557 18.7802C22.275 18.7765 22.2951 18.7736 22.314 18.7693C22.3447 18.7621 22.3743 18.7535 22.4042 18.7452C22.4203 18.7406 22.4369 18.7369 22.453 18.732C22.4834 18.7226 22.5125 18.7117 22.542 18.7007C22.5562 18.6956 22.5712 18.6913 22.5854 18.6855C22.6141 18.6741 22.6417 18.6612 22.6696 18.6483C22.683 18.6422 22.6968 18.6368 22.7102 18.6302C22.7386 18.6164 22.7649 18.6009 22.7917 18.5857C22.8031 18.5794 22.8153 18.5734 22.8268 18.5668C22.8532 18.5507 22.878 18.5332 22.9032 18.516C22.9134 18.5091 22.9244 18.5028 22.9339 18.4956C22.9583 18.4779 22.9811 18.4589 23.0036 18.4397C23.013 18.4322 23.0229 18.4251 23.032 18.4173C23.0536 18.3981 23.0733 18.3777 23.093 18.3577C23.1013 18.349 23.1107 18.341 23.119 18.3324C23.1375 18.3123 23.154 18.2914 23.1706 18.2704C23.1785 18.2607 23.1875 18.2515 23.195 18.2415C23.2108 18.2202 23.2241 18.1982 23.2379 18.1761C23.2446 18.1657 23.2525 18.1557 23.2584 18.1451C23.271 18.1236 23.2812 18.1012 23.2919 18.0791C23.2974 18.0673 23.3045 18.0559 23.3096 18.0435C23.3183 18.0226 23.325 18.0005 23.3324 17.979C23.3368 17.9652 23.3427 17.9517 23.3466 17.938C23.3525 17.9167 23.3561 17.8946 23.3604 17.8731C23.3632 17.8582 23.3675 17.8436 23.3695 17.8284C23.3726 17.8083 23.3726 17.7876 23.3738 17.767C23.375 17.7501 23.3773 17.7334 23.3773 17.7159V8.61298C23.4758 7.99765 24.193 7.51026 25.0613 7.49936C25.5075 7.49391 25.9384 7.62185 26.2712 7.86024C26.6193 8.10924 26.819 8.45348 26.819 8.80433V21.8222L26.8198 21.8715C26.828 22.5861 27.4723 23.19 28.4226 23.3741C29.3666 23.5569 30.3311 23.268 30.8273 22.6489L30.8368 22.6366C32.0238 21.1259 35.1965 18.7581 36.1227 18.2618C36.2299 18.2042 36.3531 18.158 36.489 18.1236C37.0923 17.9718 37.8489 18.0794 38.3727 18.3915C38.6192 18.5387 38.9008 18.7854 38.8386 19.1247Z" fill="#F48C06"/>
</svg>
