<svg width="180" height="180" viewBox="0 0 180 180" fill="none" xmlns="http://www.w3.org/2000/svg">
<g filter="url(#filter0_d_1_326)">
<circle cx="90" cy="80" r="50" fill="#29B9E7"/>
</g>
<g filter="url(#filter1_d_1_326)">
<path d="M62 60H70L75.36 86.78C75.5429 87.7008 76.0438 88.5279 76.7751 89.1166C77.5064 89.7053 78.4214 90.018 79.36 90H98.8C99.7386 90.018 100.654 89.7053 101.385 89.1166C102.116 88.5279 102.617 87.7008 102.8 86.78L106 70H72M80 100C80 101.105 79.1046 102 78 102C76.8954 102 76 101.105 76 100C76 98.8954 76.8954 98 78 98C79.1046 98 80 98.8954 80 100ZM102 100C102 101.105 101.105 102 100 102C98.8954 102 98 101.105 98 100C98 98.8954 98.8954 98 100 98C101.105 98 102 98.8954 102 100Z" stroke="#1E1E1E" stroke-width="4" stroke-linecap="round" stroke-linejoin="round"/>
</g>
<defs>
<filter id="filter0_d_1_326" x="0" y="0" width="180" height="180" filterUnits="userSpaceOnUse" color-interpolation-filters="sRGB">
<feFlood flood-opacity="0" result="BackgroundImageFix"/>
<feColorMatrix in="SourceAlpha" type="matrix" values="0 0 0 0 0 0 0 0 0 0 0 0 0 0 0 0 0 0 127 0" result="hardAlpha"/>
<feOffset dy="10"/>
<feGaussianBlur stdDeviation="20"/>
<feColorMatrix type="matrix" values="0 0 0 0 0.212 0 0 0 0 0.238778 0 0 0 0 0.533333 0 0 0 0.06 0"/>
<feBlend mode="normal" in2="BackgroundImageFix" result="effect1_dropShadow_1_326"/>
<feBlend mode="normal" in="SourceGraphic" in2="effect1_dropShadow_1_326" result="shape"/>
</filter>
<filter id="filter1_d_1_326" x="56" y="58" width="56" height="56" filterUnits="userSpaceOnUse" color-interpolation-filters="sRGB">
<feFlood flood-opacity="0" result="BackgroundImageFix"/>
<feColorMatrix in="SourceAlpha" type="matrix" values="0 0 0 0 0 0 0 0 0 0 0 0 0 0 0 0 0 0 127 0" result="hardAlpha"/>
<feOffset dy="4"/>
<feGaussianBlur stdDeviation="2"/>
<feComposite in2="hardAlpha" operator="out"/>
<feColorMatrix type="matrix" values="0 0 0 0 0 0 0 0 0 0 0 0 0 0 0 0 0 0 0.25 0"/>
<feBlend mode="normal" in2="BackgroundImageFix" result="effect1_dropShadow_1_326"/>
<feBlend mode="normal" in="SourceGraphic" in2="effect1_dropShadow_1_326" result="shape"/>
</filter>
</defs>
</svg>
