<svg width="30" height="27" viewBox="0 0 30 27" fill="none" xmlns="http://www.w3.org/2000/svg">
<g clip-path="url(#clip0_1_195)">
<path d="M4.38083 11.9516C5.98595 11.9516 7.29097 10.4846 7.29097 8.6803C7.29097 6.87599 5.98595 5.40903 4.38083 5.40903C2.77571 5.40903 1.47069 6.87599 1.47069 8.6803C1.47069 10.4846 2.77571 11.9516 4.38083 11.9516ZM24.7518 11.9516C26.3569 11.9516 27.6619 10.4846 27.6619 8.6803C27.6619 6.87599 26.3569 5.40903 24.7518 5.40903C23.1467 5.40903 21.8417 6.87599 21.8417 8.6803C21.8417 10.4846 23.1467 11.9516 24.7518 11.9516ZM26.2069 13.5872H23.2967C22.4964 13.5872 21.7734 13.9501 21.246 14.5379C23.0785 15.6675 24.3789 17.7069 24.6609 20.1297H27.6619C28.4668 20.1297 29.117 19.3988 29.117 18.4941V16.8585C29.117 15.0541 27.812 13.5872 26.2069 13.5872ZM14.5663 13.5872C17.381 13.5872 19.6591 11.0264 19.6591 7.86248C19.6591 4.69856 17.381 2.13777 14.5663 2.13777C11.7517 2.13777 9.47357 4.69856 9.47357 7.86248C9.47357 11.0264 11.7517 13.5872 14.5663 13.5872ZM18.0585 15.2228H17.6811C16.7353 15.734 15.6849 16.0406 14.5663 16.0406C13.4477 16.0406 12.4019 15.734 11.4516 15.2228H11.0741C8.1822 15.2228 5.8359 17.8603 5.8359 21.1111V22.5832C5.8359 23.9377 6.81352 25.0366 8.0185 25.0366H21.1141C22.3191 25.0366 23.2967 23.9377 23.2967 22.5832V21.1111C23.2967 17.8603 20.9504 15.2228 18.0585 15.2228ZM7.88664 14.5379C7.35918 13.9501 6.63619 13.5872 5.8359 13.5872H2.92576C1.32064 13.5872 0.015625 15.0541 0.015625 16.8585V18.4941C0.015625 19.3988 0.665859 20.1297 1.47069 20.1297H4.46723C4.75369 17.7069 6.05416 15.6675 7.88664 14.5379Z" fill="#2F327D"/>
</g>
<defs>
<clipPath id="clip0_1_195">
<rect width="29.1014" height="26.1701" fill="white" transform="translate(0.015625 0.502136)"/>
</clipPath>
</defs>
</svg>
